# xmcd
#
# Track frame offsets:
#	150
#	15491
#	33121
#	50165
#	68689
#	94598
#	113303
#	134534
#	151499
#	173382
#	192840
#	213881
#	230144
#	256470
#
# Disc length: 3720 seconds
#
# Revision: 0
# Processed by: cddbd v1.5.2PL0 Copyright (c) Steve Scherf et al.
# Submitted via: EasyCDDAExtractor 16.0.6.1
#
DISCID=af0e860e
DTITLE=Vários Artistas - AGOSTO NEGRO
DYEAR=1900
DGENRE=
TTITLE0=KL JAY E DJ CIA - TENTA COPIAR
TTITLE1=RZO - AMERICANOS
TTITLE2=DABANDITI E XIS - VAGABUNDO QUER FALAR
TTITLE3=THAÍDE E DJ HUM - AFRO BRASILEIRO
TTITLE4=DMN - CISCO
TTITLE5=SNJ - O SHOW DEVE CONTINUAR
TTITLE6=POSSEMENTE ZULU - O SOM
TTITLE7=JAMAL - BLACK DOG
TTITLE8=Z'ÁFRICA BRASIL - ANTIGAMENTE QUILOMBO, HOJE PERIFERIA
TTITLE9=SABOTAGE E INSTITUTO - INVASOR
TTITLE10=SP FUNK - PASSA MAL NÃO VALE
TTITLE11=509-E - UH BARATO É LOUCO
TTITLE12=CONEXÃO DO MORRO - VIVER NO GUETO, VICHIII...
TTITLE13=LINO CRIZZ E GUETO JAM - LUZ DE VELAS
EXTD=
EXTT0=
EXTT1=
EXTT2=
EXTT3=
EXTT4=
EXTT5=
EXTT6=
EXTT7=
EXTT8=
EXTT9=
EXTT10=
EXTT11=
EXTT12=
EXTT13=
PLAYORDER=
